# xmcd CD database file
#
# Track frame offsets:
#	150
#	17670
#	28905
#	43752
#	56548
#	68960
#	83749
#	96406
#	110656
#	128330
#	142251
#	155018
#	176472
#	193721
#	211031
#	229009
#	241735
#	255605
#	270403
#	290881
#	305854
#	320774
#
# Disc length: 4490 seconds
#
# Revision: 1
# Processed by: cddbd v1.4PL0 Copyright (c) Steve Scherf et al.
# Submitted via: CDex 1.50
#
DISCID=46118816
DTITLE=Vários - Boate Azul Vol 4
DYEAR=2003
DGENRE=Sertaneja
TTITLE0=Toneladas de Paixão - Sérgio and Serginho
TTITLE1=Eu volto amanhã - João Mineiro and Marciano
TTITLE2=Coração de Vidro - Zezé di Camargo and Luciano
TTITLE3=Ela fez minha cabeça - Chitãozinho and Xororó
TTITLE4=Amor com amor se paga - Chico Rey and Paraná
TTITLE5=Tranque a porta e me beija - Chico Rey and Paraná
TTITLE6=Saco de ouro - Jad Jefferson
TTITLE7=Cheiro de relva - Dino Franco and Mourai
TTITLE8=Meu pecado - Sérgio e Serginho
TTITLE9=Capa de revista - Gilberto and Gilmar
TTITLE10=Cinzas do passado - Cláudio Barros
TTITLE11=De coração para coração - Chitãozinho and Xororó
TTITLE12=Vida vazia - Bruno and Marrone
TTITLE13=24 horas de amor - Mato Grosso and Mathias
TTITLE14=Cabocla Tereza - Tonico and Tinoco
TTITLE15=Amando escondido - Teodoro and Sampaio
TTITLE16=Não aprendi dizer adeus - Leandro and Leonardo
TTITLE17=Parede meia - Tião Carreiro and Paraíso
TTITLE18=Som de Cristal - Joaquim and Manoel
TTITLE19=Boate azul - Joaquim and Manoel
TTITLE20=Telefone mais - Chico Rey and Paraná
TTITLE21=A loira do carro branco - Joao Paulo and Daniel
EXTD=YEAR: 2003
EXTT0=
EXTT1=
EXTT2=
EXTT3=
EXTT4=
EXTT5=
EXTT6=
EXTT7=
EXTT8=
EXTT9=
EXTT10=
EXTT11=
EXTT12=
EXTT13=
EXTT14=
EXTT15=
EXTT16=
EXTT17=
EXTT18=
EXTT19=
EXTT20=
EXTT21=
PLAYORDER=
